<mxfile host="Electron" agent="Mozilla/5.0 (Windows NT 10.0; Win64; x64) AppleWebKit/537.36 (KHTML, like Gecko) draw.io/26.0.4 Chrome/128.0.6613.186 Electron/32.2.5 Safari/537.36" version="26.0.4">
  <diagram name="Page-1" id="gbUnkAPo6vcsbW7kGgXP">
    <mxGraphModel dx="1036" dy="614" grid="1" gridSize="10" guides="1" tooltips="1" connect="1" arrows="1" fold="1" page="1" pageScale="1" pageWidth="850" pageHeight="1100" math="0" shadow="0">
      <root>
        <mxCell id="0" />
        <mxCell id="1" parent="0" />
        <mxCell id="fnfJxs8PL-yVholnjlDc-1" value="&lt;div style=&quot;background-color: rgb(31, 31, 31); font-family: Consolas, &amp;quot;Courier New&amp;quot;, monospace; font-size: 14px; line-height: 19px; white-space: pre; color: rgb(204, 204, 204);&quot;&gt;&lt;div style=&quot;color: light-dark(rgb(204, 204, 204), rgb(204, 204, 204));&quot;&gt;&lt;span style=&quot;color: rgb(86, 156, 214);&quot;&gt;void&lt;/span&gt;&lt;span style=&quot;color: rgb(212, 212, 212);&quot;&gt;*&lt;/span&gt; &lt;span style=&quot;color: rgb(220, 220, 170);&quot;&gt;RunPDDAU&lt;/span&gt;(&lt;span style=&quot;color: rgb(86, 156, 214);&quot;&gt;void&lt;/span&gt; &lt;span style=&quot;color: rgb(212, 212, 212);&quot;&gt;*&lt;/span&gt;&lt;span style=&quot;color: rgb(156, 220, 254);&quot;&gt;params&lt;/span&gt;);&lt;/div&gt;&lt;div style=&quot;color: light-dark(rgb(204, 204, 204), rgb(204, 204, 204));&quot;&gt;&lt;span style=&quot;color: rgb(86, 156, 214);&quot;&gt;int&lt;/span&gt; &lt;span style=&quot;color: rgb(220, 220, 170);&quot;&gt;setAmplification&lt;/span&gt;(&lt;span style=&quot;color: rgb(86, 156, 214);&quot;&gt;int&lt;/span&gt; &lt;span style=&quot;color: rgb(156, 220, 254);&quot;&gt;channel&lt;/span&gt;, &lt;span style=&quot;color: rgb(86, 156, 214);&quot;&gt;int&lt;/span&gt; &lt;span style=&quot;color: rgb(156, 220, 254);&quot;&gt;sockfd&lt;/span&gt;, &lt;span style=&quot;color: rgb(78, 201, 176);&quot;&gt;MSG_RF_INFO_PACKET&lt;/span&gt; &lt;span style=&quot;color: rgb(212, 212, 212);&quot;&gt;*&lt;/span&gt;&lt;span style=&quot;color: rgb(156, 220, 254);&quot;&gt;msg_rf_info_packet&lt;/span&gt;);&lt;/div&gt;&lt;div style=&quot;color: light-dark(rgb(204, 204, 204), rgb(204, 204, 204));&quot;&gt;&lt;span style=&quot;color: rgb(86, 156, 214);&quot;&gt;int&lt;/span&gt; &lt;span style=&quot;color: rgb(220, 220, 170);&quot;&gt;getAmplification&lt;/span&gt;(&lt;span style=&quot;color: rgb(86, 156, 214);&quot;&gt;int&lt;/span&gt; &lt;span style=&quot;color: rgb(156, 220, 254);&quot;&gt;channel&lt;/span&gt;, &lt;span style=&quot;color: rgb(86, 156, 214);&quot;&gt;int&lt;/span&gt; &lt;span style=&quot;color: rgb(156, 220, 254);&quot;&gt;sockfd&lt;/span&gt;, &lt;span style=&quot;color: rgb(78, 201, 176);&quot;&gt;MSG_RF_INFO_PACKET&lt;/span&gt; &lt;span style=&quot;color: rgb(212, 212, 212);&quot;&gt;*&lt;/span&gt;&lt;span style=&quot;color: rgb(156, 220, 254);&quot;&gt;msg_rf_info_packet&lt;/span&gt;);&lt;/div&gt;&lt;div style=&quot;color: light-dark(rgb(204, 204, 204), rgb(204, 204, 204));&quot;&gt;&lt;span style=&quot;color: rgb(86, 156, 214);&quot;&gt;int&lt;/span&gt; &lt;span style=&quot;color: rgb(220, 220, 170);&quot;&gt;resetPDDAU&lt;/span&gt;(&lt;span style=&quot;color: rgb(86, 156, 214);&quot;&gt;int&lt;/span&gt; &lt;span style=&quot;color: rgb(156, 220, 254);&quot;&gt;sockfd&lt;/span&gt;, &lt;span style=&quot;color: rgb(78, 201, 176);&quot;&gt;MSG_PDDAU_INFO_PACKET&lt;/span&gt; &lt;span style=&quot;color: rgb(212, 212, 212);&quot;&gt;*&lt;/span&gt;&lt;span style=&quot;color: rgb(156, 220, 254);&quot;&gt;msg_pddau_info_packet&lt;/span&gt;);&lt;/div&gt;&lt;div style=&quot;color: light-dark(rgb(204, 204, 204), rgb(204, 204, 204));&quot;&gt;&lt;span style=&quot;color: rgb(86, 156, 214);&quot;&gt;void&lt;/span&gt; &lt;span style=&quot;color: rgb(220, 220, 170);&quot;&gt;InitSensor&lt;/span&gt;();&lt;/div&gt;&lt;div style=&quot;&quot;&gt;&lt;span style=&quot;color: rgb(86, 156, 214);&quot;&gt;void&lt;/span&gt;&lt;font color=&quot;rgba(0, 0, 0, 0)&quot;&gt; &lt;/font&gt;&lt;span style=&quot;color: rgb(220, 220, 170);&quot;&gt;EnqueuePDData&lt;/span&gt;&lt;font color=&quot;rgba(0, 0, 0, 0)&quot;&gt;(&lt;/font&gt;&lt;font color=&quot;#569cd6&quot;&gt;...&lt;/font&gt;&lt;font color=&quot;rgba(0, 0, 0, 0)&quot;&gt;);&lt;/font&gt;&lt;/div&gt;&lt;div style=&quot;&quot;&gt;&lt;span style=&quot;color: light-dark(rgb(204, 204, 204), rgb(204, 204, 204));&quot;&gt;&lt;span style=&quot;color: rgb(86, 156, 214);&quot;&gt;void&lt;/span&gt; &lt;span style=&quot;color: rgb(220, 220, 170);&quot;&gt;setStopIssued&lt;/span&gt;(&lt;/span&gt;&lt;font color=&quot;#569cd6&quot;&gt;...&lt;/font&gt;&lt;font color=&quot;rgba(0, 0, 0, 0)&quot;&gt;);&lt;/font&gt;&lt;/div&gt;&lt;/div&gt;" style="rounded=1;whiteSpace=wrap;html=1;arcSize=5;align=left;fillColor=#1A1A1A;" vertex="1" parent="1">
          <mxGeometry x="60" y="90" width="720" height="160" as="geometry" />
        </mxCell>
        <mxCell id="fnfJxs8PL-yVholnjlDc-2" value="&lt;h5&gt;&lt;font style=&quot;font-size: 15px;&quot;&gt;function declarations in pddau.h&amp;nbsp;&lt;/font&gt;&lt;/h5&gt;" style="rounded=1;whiteSpace=wrap;html=1;align=left;fillColor=#dae8fc;strokeColor=#6c8ebf;" vertex="1" parent="1">
          <mxGeometry x="60" y="50" width="720" height="40" as="geometry" />
        </mxCell>
      </root>
    </mxGraphModel>
  </diagram>
</mxfile>
